<?xml version="1.0" encoding="UTF-8" standalone="no"?><!DOCTYPE svg PUBLIC "-//W3C//DTD SVG 1.1//EN" "http://www.w3.org/Graphics/SVG/1.1/DTD/svg11.dtd"><!-- Generated by graphviz version 2.40.1 (20161225.0304)
 --><!-- Title: G Pages: 1 --><svg xmlns="http://www.w3.org/2000/svg" xmlns:xlink="http://www.w3.org/1999/xlink" width="751pt" height="704pt" viewBox="0.00 0.00 751.00 704.00">
<g id="graph0" class="graph" transform="scale(1 1) rotate(0) translate(4 700)">
<title>G</title>
<polygon fill="#ffffff" stroke="transparent" points="-4,4 -4,-700 747,-700 747,4 -4,4"/>
<!-- sphinx -->
<g id="node1" class="node">
<title>sphinx</title>
<ellipse fill="none" stroke="#000000" cx="386.3551" cy="-352.846" rx="36.5805" ry="18"/>
<text text-anchor="middle" x="386.3551" y="-348.646" font-family="Times,serif" font-size="14.00" fill="#000000">sphinx</text>
</g>
<!-- sphinxcontrib&#45;applehelp -->
<g id="node2" class="node">
<title>sphinxcontrib-applehelp</title>
<ellipse fill="none" stroke="#000000" cx="271.3017" cy="-399.2839" rx="104.8003" ry="18"/>
<text text-anchor="middle" x="271.3017" y="-395.0839" font-family="Times,serif" font-size="14.00" fill="#000000">sphinxcontrib-applehelp</text>
</g>
<!-- sphinx&#45;&gt;sphinxcontrib&#45;applehelp -->
<g id="edge1" class="edge">
<title>sphinx-&gt;sphinxcontrib-applehelp</title>
<path fill="none" stroke="#000000" d="M357.9149,-364.3251C346.9913,-368.7341 334.1688,-373.9095 321.788,-378.9066"/>
<polygon fill="#000000" stroke="#000000" points="320.4083,-375.6891 312.4452,-382.6776 323.0283,-382.1803 320.4083,-375.6891"/>
</g>
<!-- sphinxcontrib&#45;devhelp -->
<g id="node3" class="node">
<title>sphinxcontrib-devhelp</title>
<ellipse fill="none" stroke="#000000" cx="387.6733" cy="-305.6724" rx="97.8594" ry="18"/>
<text text-anchor="middle" x="387.6733" y="-301.4724" font-family="Times,serif" font-size="14.00" fill="#000000">sphinxcontrib-devhelp</text>
</g>
<!-- sphinx&#45;&gt;sphinxcontrib&#45;devhelp -->
<g id="edge2" class="edge">
<title>sphinx-&gt;sphinxcontrib-devhelp</title>
<path fill="none" stroke="#000000" d="M386.861,-334.7424C386.8672,-334.5215 386.8733,-334.3 386.8795,-334.0779"/>
<polygon fill="#000000" stroke="#000000" points="390.3814,-334.0555 387.1622,-323.9616 383.3842,-333.8599 390.3814,-334.0555"/>
</g>
<!-- sphinxcontrib&#45;jsmath -->
<g id="node4" class="node">
<title>sphinxcontrib-jsmath</title>
<ellipse fill="none" stroke="#000000" cx="176.5984" cy="-280.1728" rx="93.218" ry="18"/>
<text text-anchor="middle" x="176.5984" y="-275.9728" font-family="Times,serif" font-size="14.00" fill="#000000">sphinxcontrib-jsmath</text>
</g>
<!-- sphinx&#45;&gt;sphinxcontrib&#45;jsmath -->
<g id="edge3" class="edge">
<title>sphinx-&gt;sphinxcontrib-jsmath</title>
<path fill="none" stroke="#000000" d="M356.3021,-342.4337C323.86,-331.1937 271.4867,-313.0482 231.6294,-299.239"/>
<polygon fill="#000000" stroke="#000000" points="232.6386,-295.8846 222.0438,-295.918 230.347,-302.4989 232.6386,-295.8846"/>
</g>
<!-- sphinxcontrib&#45;htmlhelp -->
<g id="node5" class="node">
<title>sphinxcontrib-htmlhelp</title>
<ellipse fill="none" stroke="#000000" cx="598.6217" cy="-437.5101" rx="101.8883" ry="18"/>
<text text-anchor="middle" x="598.6217" y="-433.3101" font-family="Times,serif" font-size="14.00" fill="#000000">sphinxcontrib-htmlhelp</text>
</g>
<!-- sphinx&#45;&gt;sphinxcontrib&#45;htmlhelp -->
<g id="edge4" class="edge">
<title>sphinx-&gt;sphinxcontrib-htmlhelp</title>
<path fill="none" stroke="#000000" d="M414.9823,-364.2642C448.9976,-377.8315 506.3675,-400.7139 547.9459,-417.2977"/>
<polygon fill="#000000" stroke="#000000" points="546.7711,-420.5972 557.3562,-421.0511 549.3645,-414.0953 546.7711,-420.5972"/>
</g>
<!-- sphinxcontrib&#45;serializinghtml -->
<g id="node6" class="node">
<title>sphinxcontrib-serializinghtml</title>
<ellipse fill="none" stroke="#000000" cx="125.3781" cy="-343.2548" rx="125.0779" ry="18"/>
<text text-anchor="middle" x="125.3781" y="-339.0548" font-family="Times,serif" font-size="14.00" fill="#000000">sphinxcontrib-serializinghtml</text>
</g>
<!-- sphinx&#45;&gt;sphinxcontrib&#45;serializinghtml -->
<g id="edge5" class="edge">
<title>sphinx-&gt;sphinxcontrib-serializinghtml</title>
<path fill="none" stroke="#000000" d="M349.517,-351.4922C324.9637,-350.5898 291.0607,-349.3438 257.0504,-348.0939"/>
<polygon fill="#000000" stroke="#000000" points="257.1063,-344.5937 246.9844,-347.724 256.8491,-351.589 257.1063,-344.5937"/>
</g>
<!-- sphinxcontrib&#45;qthelp -->
<g id="node7" class="node">
<title>sphinxcontrib-qthelp</title>
<ellipse fill="none" stroke="#000000" cx="216.5255" cy="-181.0265" rx="91.4963" ry="18"/>
<text text-anchor="middle" x="216.5255" y="-176.8265" font-family="Times,serif" font-size="14.00" fill="#000000">sphinxcontrib-qthelp</text>
</g>
<!-- sphinx&#45;&gt;sphinxcontrib&#45;qthelp -->
<g id="edge6" class="edge">
<title>sphinx-&gt;sphinxcontrib-qthelp</title>
<path fill="none" stroke="#000000" d="M370.0711,-336.3713C340.1529,-306.1025 276.2846,-241.4858 241.0785,-205.8671"/>
<polygon fill="#000000" stroke="#000000" points="243.5425,-203.3812 234.0234,-198.7294 238.564,-208.302 243.5425,-203.3812"/>
</g>
<!-- Jinja2 -->
<g id="node8" class="node">
<title>Jinja2</title>
<ellipse fill="none" stroke="#000000" cx="468.7081" cy="-183.8086" rx="34.2065" ry="18"/>
<text text-anchor="middle" x="468.7081" y="-179.6086" font-family="Times,serif" font-size="14.00" fill="#000000">Jinja2</text>
</g>
<!-- sphinx&#45;&gt;Jinja2 -->
<g id="edge7" class="edge">
<title>sphinx-&gt;Jinja2</title>
<path fill="none" stroke="#000000" d="M395.0126,-335.0755C409.5077,-305.323 438.7637,-245.2724 455.7296,-210.4481"/>
<polygon fill="#000000" stroke="#000000" points="458.9332,-211.8638 460.1665,-201.3409 452.6403,-208.7979 458.9332,-211.8638"/>
</g>
<!-- Pygments -->
<g id="node10" class="node">
<title>Pygments</title>
<ellipse fill="none" stroke="#000000" cx="511.577" cy="-230.9435" rx="49.257" ry="18"/>
<text text-anchor="middle" x="511.577" y="-226.7435" font-family="Times,serif" font-size="14.00" fill="#000000">Pygments</text>
</g>
<!-- sphinx&#45;&gt;Pygments -->
<g id="edge9" class="edge">
<title>sphinx-&gt;Pygments</title>
<path fill="none" stroke="#000000" d="M402.9836,-336.6583C424.4475,-315.7634 461.9795,-279.2263 486.8073,-255.0566"/>
<polygon fill="#000000" stroke="#000000" points="489.3488,-257.4671 494.0728,-247.9837 484.4659,-252.4513 489.3488,-257.4671"/>
</g>
<!-- docutils -->
<g id="node11" class="node">
<title>docutils</title>
<ellipse fill="none" stroke="#000000" cx="417.7138" cy="-491.5616" rx="41.7308" ry="18"/>
<text text-anchor="middle" x="417.7138" y="-487.3616" font-family="Times,serif" font-size="14.00" fill="#000000">docutils</text>
</g>
<!-- sphinx&#45;&gt;docutils -->
<g id="edge10" class="edge">
<title>sphinx-&gt;docutils</title>
<path fill="none" stroke="#000000" d="M390.4547,-370.9807C395.7838,-394.5538 405.1451,-435.9636 411.3881,-463.5797"/>
<polygon fill="#000000" stroke="#000000" points="407.9943,-464.4404 413.6132,-473.4225 414.822,-462.8968 407.9943,-464.4404"/>
</g>
<!-- snowballstemmer -->
<g id="node12" class="node">
<title>snowballstemmer</title>
<ellipse fill="none" stroke="#000000" cx="227.811" cy="-232.6719" rx="79.3096" ry="18"/>
<text text-anchor="middle" x="227.811" y="-228.4719" font-family="Times,serif" font-size="14.00" fill="#000000">snowballstemmer</text>
</g>
<!-- sphinx&#45;&gt;snowballstemmer -->
<g id="edge11" class="edge">
<title>sphinx-&gt;snowballstemmer</title>
<path fill="none" stroke="#000000" d="M366.2754,-337.6259C339.1983,-317.1018 290.7146,-280.3519 258.9049,-256.2406"/>
<polygon fill="#000000" stroke="#000000" points="260.8874,-253.3515 250.8038,-250.1001 256.6589,-258.9301 260.8874,-253.3515"/>
</g>
<!-- babel -->
<g id="node13" class="node">
<title>babel</title>
<ellipse fill="none" stroke="#000000" cx="562.9926" cy="-346.0144" rx="31.9012" ry="18"/>
<text text-anchor="middle" x="562.9926" y="-341.8144" font-family="Times,serif" font-size="14.00" fill="#000000">babel</text>
</g>
<!-- sphinx&#45;&gt;babel -->
<g id="edge12" class="edge">
<title>sphinx-&gt;babel</title>
<path fill="none" stroke="#000000" d="M423.3841,-351.4139C451.8897,-350.3114 491.3042,-348.787 520.9864,-347.639"/>
<polygon fill="#000000" stroke="#000000" points="521.1884,-351.1339 531.0457,-347.25 520.9178,-344.1392 521.1884,-351.1339"/>
</g>
<!-- alabaster -->
<g id="node15" class="node">
<title>alabaster</title>
<ellipse fill="none" stroke="#000000" cx="322.7281" cy="-487.2687" rx="45.1996" ry="18"/>
<text text-anchor="middle" x="322.7281" y="-483.0687" font-family="Times,serif" font-size="14.00" fill="#000000">alabaster</text>
</g>
<!-- sphinx&#45;&gt;alabaster -->
<g id="edge14" class="edge">
<title>sphinx-&gt;alabaster</title>
<path fill="none" stroke="#000000" d="M378.037,-370.4195C367.2366,-393.237 348.2736,-433.2996 335.6065,-460.0609"/>
<polygon fill="#000000" stroke="#000000" points="332.3662,-458.7259 331.2513,-469.262 338.6932,-461.7208 332.3662,-458.7259"/>
</g>
<!-- imagesize -->
<g id="node16" class="node">
<title>imagesize</title>
<ellipse fill="none" stroke="#000000" cx="544.2738" cy="-288.5411" rx="49.7942" ry="18"/>
<text text-anchor="middle" x="544.2738" y="-284.3411" font-family="Times,serif" font-size="14.00" fill="#000000">imagesize</text>
</g>
<!-- sphinx&#45;&gt;imagesize -->
<g id="edge15" class="edge">
<title>sphinx-&gt;imagesize</title>
<path fill="none" stroke="#000000" d="M414.953,-341.2009C439.203,-331.3262 474.3299,-317.0224 501.8558,-305.8138"/>
<polygon fill="#000000" stroke="#000000" points="503.3031,-309.0036 511.2448,-301.9906 500.6632,-302.5204 503.3031,-309.0036"/>
</g>
<!-- requests -->
<g id="node17" class="node">
<title>requests</title>
<ellipse fill="none" stroke="#000000" cx="214.4957" cy="-510.0426" rx="42.8538" ry="18"/>
<text text-anchor="middle" x="214.4957" y="-505.8426" font-family="Times,serif" font-size="14.00" fill="#000000">requests</text>
</g>
<!-- sphinx&#45;&gt;requests -->
<g id="edge16" class="edge">
<title>sphinx-&gt;requests</title>
<path fill="none" stroke="#000000" d="M368.9305,-368.784C338.4658,-396.6494 275.4021,-454.3327 240.011,-486.7043"/>
<polygon fill="#000000" stroke="#000000" points="237.4986,-484.259 232.482,-493.5909 242.2231,-489.4242 237.4986,-484.259"/>
</g>
<!-- setuptools -->
<g id="node22" class="node">
<title>setuptools</title>
<ellipse fill="none" stroke="#000000" cx="368.2093" cy="-161.1326" rx="50.3994" ry="18"/>
<text text-anchor="middle" x="368.2093" y="-156.9326" font-family="Times,serif" font-size="14.00" fill="#000000">setuptools</text>
</g>
<!-- sphinx&#45;&gt;setuptools -->
<g id="edge21" class="edge">
<title>sphinx-&gt;setuptools</title>
<path fill="none" stroke="#000000" d="M384.648,-334.8101C381.48,-301.3398 374.6701,-229.3922 370.8848,-189.4001"/>
<polygon fill="#000000" stroke="#000000" points="374.3519,-188.8859 369.9251,-179.2603 367.383,-189.5456 374.3519,-188.8859"/>
</g>
<!-- packaging -->
<g id="node23" class="node">
<title>packaging</title>
<ellipse fill="none" stroke="#000000" cx="527.1476" cy="-518.6424" rx="50.9464" ry="18"/>
<text text-anchor="middle" x="527.1476" y="-514.4424" font-family="Times,serif" font-size="14.00" fill="#000000">packaging</text>
</g>
<!-- sphinx&#45;&gt;packaging -->
<g id="edge22" class="edge">
<title>sphinx-&gt;packaging</title>
<path fill="none" stroke="#000000" d="M400.6298,-369.6559C425.4826,-398.9223 476.8175,-459.3741 505.878,-493.5955"/>
<polygon fill="#000000" stroke="#000000" points="503.2719,-495.9337 512.4127,-501.2907 508.6076,-491.4027 503.2719,-495.9337"/>
</g>
<!-- colorama -->
<g id="node26" class="node">
<title>colorama</title>
<ellipse fill="none" stroke="#000000" cx="373.2816" cy="-215.0843" rx="46.9284" ry="18"/>
<text text-anchor="middle" x="373.2816" y="-210.8843" font-family="Times,serif" font-size="14.00" fill="#000000">colorama</text>
</g>
<!-- sphinx&#45;&gt;colorama -->
<g id="edge25" class="edge">
<title>sphinx-&gt;colorama</title>
<path fill="none" stroke="#000000" d="M384.6459,-334.8361C382.434,-311.5281 378.5559,-270.662 375.9533,-243.2371"/>
<polygon fill="#000000" stroke="#000000" points="379.4203,-242.7233 374.9911,-233.0987 372.4516,-243.3847 379.4203,-242.7233"/>
</g>
<!-- MarkupSafe -->
<g id="node9" class="node">
<title>MarkupSafe</title>
<ellipse fill="none" stroke="#000000" cx="533.7037" cy="-17.7358" rx="58.529" ry="18"/>
<text text-anchor="middle" x="533.7037" y="-13.5358" font-family="Times,serif" font-size="14.00" fill="#000000">MarkupSafe</text>
</g>
<!-- Jinja2&#45;&gt;MarkupSafe -->
<g id="edge8" class="edge">
<title>Jinja2-&gt;MarkupSafe</title>
<path fill="none" stroke="#000000" d="M475.6638,-166.0359C487.0198,-137.0195 509.6171,-79.2805 523.0193,-45.0358"/>
<polygon fill="#000000" stroke="#000000" points="526.3145,-46.2195 526.6998,-35.6317 519.7959,-43.6683 526.3145,-46.2195"/>
</g>
<!-- pytz -->
<g id="node14" class="node">
<title>pytz</title>
<ellipse fill="none" stroke="#000000" cx="715.7893" cy="-325.0501" rx="27.8286" ry="18"/>
<text text-anchor="middle" x="715.7893" y="-320.8501" font-family="Times,serif" font-size="14.00" fill="#000000">pytz</text>
</g>
<!-- babel&#45;&gt;pytz -->
<g id="edge13" class="edge">
<title>babel-&gt;pytz</title>
<path fill="none" stroke="#000000" d="M594.282,-341.7214C618.6844,-338.3733 652.6529,-333.7127 678.4718,-330.1702"/>
<polygon fill="#000000" stroke="#000000" points="679.2018,-333.6029 688.6332,-328.776 678.2503,-326.6679 679.2018,-333.6029"/>
</g>
<!-- chardet -->
<g id="node18" class="node">
<title>chardet</title>
<ellipse fill="none" stroke="#000000" cx="114.024" cy="-654.6" rx="39.4042" ry="18"/>
<text text-anchor="middle" x="114.024" y="-650.4" font-family="Times,serif" font-size="14.00" fill="#000000">chardet</text>
</g>
<!-- requests&#45;&gt;chardet -->
<g id="edge17" class="edge">
<title>requests-&gt;chardet</title>
<path fill="none" stroke="#000000" d="M202.3765,-527.4796C184.8758,-552.6594 152.403,-599.3807 132.075,-628.6285"/>
<polygon fill="#000000" stroke="#000000" points="129.0194,-626.8922 126.1862,-637.1012 134.7674,-630.8873 129.0194,-626.8922"/>
</g>
<!-- idna -->
<g id="node19" class="node">
<title>idna</title>
<ellipse fill="none" stroke="#000000" cx="55.4527" cy="-520.5825" rx="27.8286" ry="18"/>
<text text-anchor="middle" x="55.4527" y="-516.3825" font-family="Times,serif" font-size="14.00" fill="#000000">idna</text>
</g>
<!-- requests&#45;&gt;idna -->
<g id="edge18" class="edge">
<title>requests-&gt;idna</title>
<path fill="none" stroke="#000000" d="M172.2927,-512.8394C147.7627,-514.4651 117.1058,-516.4967 93.3501,-518.071"/>
<polygon fill="#000000" stroke="#000000" points="93.0461,-514.5834 83.2994,-518.7371 93.509,-521.568 93.0461,-514.5834"/>
</g>
<!-- urllib3 -->
<g id="node20" class="node">
<title>urllib3</title>
<ellipse fill="none" stroke="#000000" cx="199.1671" cy="-677.5063" rx="36.5767" ry="18"/>
<text text-anchor="middle" x="199.1671" y="-673.3063" font-family="Times,serif" font-size="14.00" fill="#000000">urllib3</text>
</g>
<!-- requests&#45;&gt;urllib3 -->
<g id="edge19" class="edge">
<title>requests-&gt;urllib3</title>
<path fill="none" stroke="#000000" d="M212.8261,-528.283C210.1654,-557.3502 204.9423,-614.4124 201.7823,-648.9356"/>
<polygon fill="#000000" stroke="#000000" points="198.2608,-649.011 200.8346,-659.2884 205.2317,-649.6491 198.2608,-649.011"/>
</g>
<!-- certifi -->
<g id="node21" class="node">
<title>certifi</title>
<ellipse fill="none" stroke="#000000" cx="67.8025" cy="-595.4397" rx="34.1813" ry="18"/>
<text text-anchor="middle" x="67.8025" y="-591.2397" font-family="Times,serif" font-size="14.00" fill="#000000">certifi</text>
</g>
<!-- requests&#45;&gt;certifi -->
<g id="edge20" class="edge">
<title>requests-&gt;certifi</title>
<path fill="none" stroke="#000000" d="M189.2783,-524.7229C164.4022,-539.2044 126.3021,-561.3843 99.4153,-577.0364"/>
<polygon fill="#000000" stroke="#000000" points="97.6438,-574.0177 90.7624,-582.0736 101.1655,-580.0673 97.6438,-574.0177"/>
</g>
<!-- pyparsing -->
<g id="node24" class="node">
<title>pyparsing</title>
<ellipse fill="none" stroke="#000000" cx="671.5868" cy="-627.145" rx="49.2396" ry="18"/>
<text text-anchor="middle" x="671.5868" y="-622.945" font-family="Times,serif" font-size="14.00" fill="#000000">pyparsing</text>
</g>
<!-- packaging&#45;&gt;pyparsing -->
<g id="edge23" class="edge">
<title>packaging-&gt;pyparsing</title>
<path fill="none" stroke="#000000" d="M549.0848,-535.1217C573.8308,-553.7108 614.213,-584.0458 641.7979,-604.7676"/>
<polygon fill="#000000" stroke="#000000" points="639.8188,-607.6584 649.9164,-610.8662 644.0232,-602.0617 639.8188,-607.6584"/>
</g>
<!-- six -->
<g id="node25" class="node">
<title>six</title>
<ellipse fill="none" stroke="#000000" cx="581.2117" cy="-666.2114" rx="27" ry="18"/>
<text text-anchor="middle" x="581.2117" y="-662.0114" font-family="Times,serif" font-size="14.00" fill="#000000">six</text>
</g>
<!-- packaging&#45;&gt;six -->
<g id="edge24" class="edge">
<title>packaging-&gt;six</title>
<path fill="none" stroke="#000000" d="M533.7769,-536.7373C543.1094,-562.2103 560.1983,-608.8549 571.1156,-638.654"/>
<polygon fill="#000000" stroke="#000000" points="567.9705,-640.2439 574.697,-648.4295 574.5433,-637.8358 567.9705,-640.2439"/>
</g>
</g>
</svg>